<svg width="18" height="9" viewBox="0 0 18 9" fill="none" xmlns="http://www.w3.org/2000/svg">
<path d="M2.48978 4.18654C2.48978 2.76727 3.64346 1.61359 5.06273 1.61359H8.38267V0.0366211H5.06273C2.77198 0.0366211 0.912811 1.89579 0.912811 4.18654C0.912811 6.4773 2.77198 8.33647 5.06273 8.33647H8.38267V6.7595H5.06273C3.64346 6.7595 2.48978 5.60582 2.48978 4.18654ZM5.89272 5.01653H12.5326V3.35656H5.89272V5.01653ZM13.3626 0.0366211H10.0426V1.61359H13.3626C14.7819 1.61359 15.9355 2.76727 15.9355 4.18654C15.9355 5.60582 14.7819 6.7595 13.3626 6.7595H10.0426V8.33647H13.3626C15.6533 8.33647 17.5125 6.4773 17.5125 4.18654C17.5125 1.89579 15.6533 0.0366211 13.3626 0.0366211Z" fill="white"/>
</svg>
