<svg width="28" height="28" viewBox="0 0 28 28" fill="none" xmlns="http://www.w3.org/2000/svg">
<rect width="28" height="28" />
<path d="M6.805 13.75C6.805 12.1255 8.1255 10.805 9.75 10.805H13.55V9H9.75C7.128 9 5 11.128 5 13.75C5 16.372 7.128 18.5 9.75 18.5H13.55V16.695H9.75C8.1255 16.695 6.805 15.3745 6.805 13.75ZM10.7 14.7H18.3V12.8H10.7V14.7ZM19.25 9H15.45V10.805H19.25C20.8745 10.805 22.195 12.1255 22.195 13.75C22.195 15.3745 20.8745 16.695 19.25 16.695H15.45V18.5H19.25C21.872 18.5 24 16.372 24 13.75C24 11.128 21.872 9 19.25 9Z" fill="white"/>
</svg>
