<svg width="32" height="32" viewBox="0 0 32 32" fill="none" xmlns="http://www.w3.org/2000/svg">
<g clip-path="url(#clip0_23_586)">
<path d="M16.2699 31.2045C24.5644 31.2045 31.2883 24.4805 31.2883 16.186C31.2883 7.89158 24.5644 1.1676 16.2699 1.1676C7.97545 1.1676 1.25146 7.89158 1.25146 16.186C1.25146 24.4805 7.97545 31.2045 16.2699 31.2045Z" fill="white" stroke="#242526" stroke-width="1.07747" stroke-miterlimit="10" stroke-linecap="round" stroke-linejoin="round"/>
<path d="M12.9594 10.4262C12.9594 11.8796 11.2906 13.0369 9.24512 13.0369C7.1996 13.0369 5.53088 11.8526 5.53088 10.4262C5.53088 8.97276 7.1996 7.81543 9.24512 7.81543C11.2906 7.81543 12.9594 8.97276 12.9594 10.4262Z" stroke="#242526" stroke-width="1.07747" stroke-miterlimit="10" stroke-linecap="round" stroke-linejoin="round"/>
<path d="M9.24512 13.0369C11.2964 13.0369 12.9594 11.868 12.9594 10.4262C12.9594 8.98429 11.2964 7.81543 9.24512 7.81543C7.1938 7.81543 5.53088 8.98429 5.53088 10.4262C5.53088 11.868 7.1938 13.0369 9.24512 13.0369Z" stroke="#242526" stroke-width="1.07747" stroke-miterlimit="10" stroke-linecap="round" stroke-linejoin="round"/>
<path d="M26.9819 10.4262C26.9819 11.8796 25.3132 13.0369 23.2677 13.0369C21.2222 13.0369 19.5535 11.8526 19.5535 10.4262C19.5535 8.97276 21.2222 7.81543 23.2677 7.81543C25.3401 7.81543 26.9819 8.97276 26.9819 10.4262Z" stroke="#242526" stroke-width="1.07747" stroke-miterlimit="10" stroke-linecap="round" stroke-linejoin="round"/>
<path d="M23.2946 13.0369C25.3459 13.0369 27.0088 11.868 27.0088 10.4262C27.0088 8.98429 25.3459 7.81543 23.2946 7.81543C21.2432 7.81543 19.5803 8.98429 19.5803 10.4262C19.5803 11.868 21.2432 13.0369 23.2946 13.0369Z" stroke="#242526" stroke-width="1.07747" stroke-miterlimit="10" stroke-linecap="round" stroke-linejoin="round"/>
<path d="M24.8018 9.02664C24.8018 9.86099 24.1289 10.5339 23.2946 10.5339C22.4602 10.5339 21.7874 9.86099 21.7874 9.02664C21.7874 8.19228 22.4602 7.51941 23.2946 7.51941C24.1289 7.51941 24.8018 8.19228 24.8018 9.02664Z" fill="#242526"/>
<path d="M10.7792 9.02664C10.7792 9.86099 10.1064 10.5339 9.272 10.5339C8.43764 10.5339 7.76477 9.86099 7.76477 9.02664C7.76477 8.19228 8.43764 7.51941 9.272 7.51941C10.0794 7.51941 10.7792 8.19228 10.7792 9.02664Z" fill="#242526"/>
<path d="M12.6902 23.1838H19.8495" stroke="#242526" stroke-width="1.07747" stroke-miterlimit="10" stroke-linecap="round" stroke-linejoin="round"/>
</g>
<defs>
<clipPath id="clip0_23_586">
<rect width="32" height="32" fill="white"/>
</clipPath>
</defs>
</svg>
