<svg width="81" height="81" viewBox="0 0 81 81" fill="none" xmlns="http://www.w3.org/2000/svg">
<path d="M40.1225 40.8535C39.6129 40.8842 39.1234 41.0632 38.7144 41.3686C38.3054 41.674 37.9946 42.0925 37.8205 42.5723C37.6463 43.0522 37.6164 43.5725 37.7344 44.0692C37.8523 44.5658 38.1131 45.0171 38.4844 45.3674C38.8557 45.7177 39.3214 45.9517 39.8241 46.0406C40.3268 46.1294 40.8445 46.0693 41.3134 45.8675C41.7823 45.6657 42.1819 45.3312 42.463 44.905C42.7441 44.4789 42.8943 43.9799 42.8953 43.4694C42.8951 42.9579 42.7451 42.4577 42.4636 42.0307L50.5989 25.747L48.2708 24.5699L40.1225 40.8535Z" fill="black"/>
<path d="M41.587 22.5427H38.9712V25.1585H41.587V22.5427Z" fill="black"/>
<path d="M41.587 61.7803H38.9712V64.3962H41.587V61.7803Z" fill="black"/>
<path d="M30.9512 24.6939L28.6855 26.0014L29.9931 28.267L32.2587 26.9595L30.9512 24.6939Z" fill="black"/>
<path d="M22.8153 31.8749L21.5078 34.1406L23.7734 35.4481L25.081 33.1825L22.8153 31.8749Z" fill="black"/>
<path d="M21.9684 42.1615H19.3525V44.7773H21.9684V42.1615Z" fill="black"/>
<path d="M23.7036 51.5252L21.4946 52.8L22.8022 55.0657L25.0111 53.7908L23.7036 51.5252Z" fill="black"/>
<path d="M29.9975 58.6703L28.6899 60.9359L30.9556 62.2434L32.2631 59.9778L29.9975 58.6703Z" fill="black"/>
<path d="M79.5169 33.006C79.5169 30.9247 78.6901 28.9286 77.2184 27.4569C75.7467 25.9852 73.7507 25.1585 71.6694 25.1585H61.7422L63.4425 23.4712C63.5651 23.3496 63.6624 23.205 63.7288 23.0456C63.7952 22.8862 63.8294 22.7153 63.8294 22.5426C63.8294 22.3699 63.7952 22.199 63.7288 22.0396C63.6624 21.8802 63.5651 21.7356 63.4425 21.614L59.5188 17.6902C59.3972 17.5676 59.2525 17.4703 59.0931 17.4039C58.9338 17.3375 58.7628 17.3033 58.5901 17.3033C58.4175 17.3033 58.2465 17.3375 58.0871 17.4039C57.9278 17.4703 57.7831 17.5676 57.6615 17.6902L54.0647 21.2347C50.3037 18.8938 46.011 17.5439 41.5871 17.3109V17.1278C43.5273 16.7999 45.2735 15.755 46.4796 14.2003C47.6857 12.6456 48.2638 10.6946 48.0993 8.73376C47.9347 6.77296 47.0396 4.94553 45.5912 3.61361C44.1428 2.28169 42.2469 1.54248 40.2792 1.54248C38.3115 1.54248 36.4156 2.28169 34.9672 3.61361C33.5189 4.94553 32.6237 6.77296 32.4592 8.73376C32.2946 10.6946 32.8727 12.6456 34.0788 14.2003C35.2849 15.755 37.0311 16.7999 38.9713 17.1278V17.3109C34.5403 17.5268 30.2391 18.878 26.4806 21.2347L24.2048 18.9458C26.5136 16.9096 28.0537 14.1428 28.5679 11.1077C29.0821 8.07251 28.5392 4.95282 27.0299 2.26979C26.9423 2.11857 26.8253 1.98644 26.6858 1.8812C26.5463 1.77597 26.3871 1.69976 26.2176 1.65709C26.0481 1.61442 25.8718 1.60614 25.6991 1.63275C25.5263 1.65936 25.3607 1.72032 25.2119 1.81202L1.66931 16.1992C1.47839 16.3154 1.32044 16.4786 1.21054 16.6732C1.10063 16.8679 1.04244 17.0874 1.0415 17.3109V78.7833C1.0415 79.1302 1.1793 79.4629 1.42459 79.7082C1.66987 79.9535 2.00254 80.0912 2.34943 80.0912H62.5139C64.5952 80.0912 66.5913 79.2645 68.063 77.7928C69.5347 76.3211 70.3615 74.325 70.3615 72.2437C70.3587 70.3062 69.6308 68.4398 68.3211 67.012C69.8033 66.8991 71.2229 66.3675 72.4147 65.4791C73.6066 64.5908 74.5216 63.3822 75.0533 61.9941C75.5849 60.6059 75.7114 59.0953 75.418 57.6381C75.1246 56.1809 74.4233 54.8369 73.3958 53.7627C74.8948 53.4245 76.2615 52.6535 77.3263 51.5456C78.3911 50.4377 79.1072 49.0415 79.3858 47.5303C79.6643 46.0191 79.4931 44.4594 78.8933 43.0446C78.2935 41.6298 77.2915 40.4223 76.0117 39.5718C77.0937 38.853 77.9804 37.8768 78.5922 36.7309C79.204 35.5849 79.5217 34.305 79.5169 33.006ZM55.5688 39.5456C54.6135 40.1821 53.8094 41.0205 53.2133 42.0016C52.6173 42.9827 52.2437 44.0826 52.119 45.2238C51.9942 46.365 52.1214 47.5196 52.4915 48.6063C52.8616 49.693 53.4656 50.6853 54.2609 51.5131C52.5215 51.9023 50.9664 52.872 49.8515 54.2626C48.7366 55.6533 48.1283 57.3821 48.1268 59.1645C48.1295 61.102 48.8574 62.9683 50.1671 64.3962C48.4332 64.5372 46.7954 65.2503 45.5109 66.4234C43.795 66.8174 42.0398 67.0148 40.2792 67.012C34.0353 67.012 28.0472 64.5316 23.6321 60.1165C19.217 55.7014 16.7366 49.7133 16.7366 43.4694C16.7366 37.2255 19.217 31.2373 23.6321 26.8222C28.0472 22.4071 34.0353 19.9268 40.2792 19.9268C46.1631 19.9108 51.8353 22.1208 56.1574 26.1132C54.9689 26.7598 53.9678 27.7027 53.2512 28.8504C52.5346 29.998 52.1269 31.3114 52.0677 32.6631C52.0085 34.0148 52.2997 35.3589 52.9132 36.5648C53.5266 37.7707 54.4415 38.7976 55.5688 39.5456ZM16.7366 26.4664V25.8517C16.7394 25.492 16.8164 25.1368 16.9626 24.8083C17.1089 24.4797 17.3214 24.1848 17.5867 23.9421L20.2811 26.6364C19.6609 27.3724 19.0803 28.1408 18.5415 28.9384C18.0192 28.7681 17.5637 28.4376 17.2398 27.9939C16.9158 27.5502 16.7397 27.0158 16.7366 26.4664ZM58.5901 20.463L60.6697 22.5426L58.4724 24.7268C57.7681 24.0446 57.0257 23.4027 56.249 22.8042L58.5901 20.463ZM35.0475 9.46337C35.0443 8.48415 35.316 7.5237 35.8317 6.69126C36.3474 5.85883 37.0864 5.18783 37.9645 4.75459C38.8427 4.32136 39.8248 4.14328 40.7992 4.24061C41.7736 4.33795 42.7011 4.70679 43.4762 5.30518C44.2513 5.90357 44.8429 6.70749 45.1838 7.62548C45.5246 8.54348 45.6009 9.5387 45.4041 10.4979C45.2073 11.4572 44.7452 12.3419 44.0704 13.0515C43.3956 13.7612 42.5353 14.2671 41.5871 14.512V10.7713H44.203V8.15545H36.3554V10.7713H38.9713V14.512C37.8511 14.2227 36.8583 13.5703 36.1484 12.6569C35.4384 11.7434 35.0513 10.6203 35.0475 9.46337ZM22.0729 24.7268L19.7056 22.3595L22.1122 20.6069L24.2964 22.8042C23.5192 23.4022 22.7768 24.0441 22.0729 24.7268ZM3.65735 18.0434L25.3558 4.781C26.2511 6.97382 26.4046 9.39926 25.793 11.6875C25.1814 13.9757 23.8382 16.0011 21.9683 17.4548L16.2527 21.614C15.5886 22.1024 15.0493 22.7409 14.6788 23.4773C14.3083 24.2137 14.1171 25.0273 14.1207 25.8517V26.4664C14.1231 27.4677 14.4127 28.4472 14.9552 29.2888C15.4977 30.1304 16.2703 30.7986 17.1813 31.2141C15.0679 35.1994 14.021 39.6634 14.1423 44.1727C14.2636 48.682 15.5489 53.0833 17.8734 56.9491C20.198 60.815 23.4827 64.0141 27.4086 66.2356C31.3346 68.4572 35.7683 69.6258 40.2792 69.6279C41.3286 69.6281 42.377 69.5626 43.4182 69.4317C43.0767 70.3301 42.8995 71.2826 42.8951 72.2437C42.8994 74.1761 43.6166 76.039 44.9093 77.4754H3.65735V18.0434ZM62.5139 77.4754H50.7426C49.3551 77.4754 48.0244 76.9242 47.0432 75.9431C46.0621 74.9619 45.5109 73.6312 45.5109 72.2437C45.5109 70.8562 46.0621 69.5255 47.0432 68.5443C48.0244 67.5632 49.3551 67.012 50.7426 67.012H62.5139C63.9014 67.012 65.2321 67.5632 66.2133 68.5443C67.1944 69.5255 67.7456 70.8562 67.7456 72.2437C67.7456 73.6312 67.1944 74.9619 66.2133 75.9431C65.2321 76.9242 63.9014 77.4754 62.5139 77.4754ZM67.7456 64.3962H55.9743C54.5868 64.3962 53.2561 63.845 52.2749 62.8638C51.2938 61.8827 50.7426 60.552 50.7426 59.1645C50.7426 57.7769 51.2938 56.4462 52.2749 55.4651C53.2561 54.484 54.5868 53.9328 55.9743 53.9328H67.7456C69.1331 53.9328 70.4638 54.484 71.445 55.4651C72.4261 56.4462 72.9773 57.7769 72.9773 59.1645C72.9773 60.552 72.4261 61.8827 71.445 62.8638C70.4638 63.845 69.1331 64.3962 67.7456 64.3962ZM76.9011 46.0852C76.9011 47.4728 76.3499 48.8035 75.3687 49.7846C74.3876 50.7657 73.0569 51.3169 71.6694 51.3169H59.8981C58.5105 51.3169 57.1798 50.7657 56.1987 49.7846C55.2176 48.8035 54.6664 47.4728 54.6664 46.0852C54.6664 44.6977 55.2176 43.367 56.1987 42.3859C57.1798 41.4047 58.5105 40.8535 59.8981 40.8535H71.6694C73.0569 40.8535 74.3876 41.4047 75.3687 42.3859C76.3499 43.367 76.9011 44.6977 76.9011 46.0852ZM71.6694 38.2377H59.8981C58.5105 38.2377 57.1798 37.6865 56.1987 36.7054C55.2176 35.7242 54.6664 34.3935 54.6664 33.006C54.6664 31.6185 55.2176 30.2878 56.1987 29.3066C57.1798 28.3255 58.5105 27.7743 59.8981 27.7743H71.6694C73.0569 27.7743 74.3876 28.3255 75.3687 29.3066C76.3499 30.2878 76.9011 31.6185 76.9011 33.006C76.9011 34.3935 76.3499 35.7242 75.3687 36.7054C74.3876 37.6865 73.0569 38.2377 71.6694 38.2377Z" fill="black" stroke="black" stroke-width="1.2"/>
</svg>
