<svg width="23" height="25" viewBox="0 0 23 25" fill="none" xmlns="http://www.w3.org/2000/svg">
<path d="M0.354492 22.2959H7.47799V24.6668H0.354492V22.2959Z" fill="black"/>
<path d="M7.95752 20.2505H15.081V24.6663H7.95752V20.2505Z" fill="black"/>
<path d="M15.561 17.8809H22.6845V24.6661H15.561V17.8809Z" fill="black"/>
<path d="M17.4576 13.5305V14.9726C17.4576 15.4744 17.8655 15.8823 18.3673 15.8823C18.6097 15.8823 18.8404 15.7886 19.0103 15.6157C19.181 15.4429 19.2769 15.2151 19.2769 14.9726V12.174V11.6313C19.2769 10.7934 18.5951 10.1145 17.7601 10.1145H16.6798C16.2791 10.1145 15.9503 9.7878 15.9503 9.38717V8.44234C15.9503 8.13254 16.1012 7.8403 16.3561 7.66011L19.474 5.47817C19.6805 5.33169 19.8146 5.11562 19.8505 4.8688C19.8885 4.61905 19.8241 4.37222 19.6681 4.173C19.3707 3.7914 18.8258 3.71232 18.4296 3.98843L15.6932 5.90375C15.1915 6.25385 14.6063 6.43915 13.994 6.44135L12.2874 6.44354C11.5726 6.44354 10.9097 6.8039 10.5186 7.40082L8.1068 11.0798C7.97496 11.2841 7.92662 11.5258 7.97716 11.7638C8.02769 12.0011 8.16685 12.2055 8.36826 12.3395C8.78794 12.6156 9.35191 12.4955 9.62804 12.078L11.6444 9.00342C11.6898 8.93384 11.7667 8.89576 11.8458 8.89576C11.87 8.89576 11.8912 8.89796 11.9154 8.90528C12.0165 8.93677 12.0861 9.02979 12.0861 9.136V14.2381C12.0861 14.5838 11.9879 14.917 11.7982 15.2056L10.4491 17.2623C10.173 17.682 10.2909 18.2459 10.7106 18.5221C10.9149 18.6568 11.1566 18.7022 11.3946 18.6517C11.6319 18.6034 11.8363 18.462 11.9703 18.2606L13.5882 15.7908C13.742 15.5557 13.8233 15.2847 13.8233 15.0035L13.8241 13.5306C13.8241 12.6495 14.5418 11.9325 15.4222 11.9325H15.8565C16.7398 11.9317 17.4576 12.6495 17.4576 13.5306L17.4576 13.5305Z" fill="black"/>
<path d="M13.3221 5.47299C14.5174 5.47299 15.4872 4.50107 15.4872 3.30793V2.83333C15.4872 1.63802 14.5152 0.666016 13.3221 0.666016C12.129 0.666016 11.1548 1.63794 11.1548 2.83333V3.30868C11.1548 4.50107 12.1267 5.47299 13.3221 5.47299Z" fill="black"/>
</svg>
